# xmcd
#
# Track frame offsets:
# 150
# 29033
# 52979
# 70759
# 87162
# 103783
# 122854
# 142900
# 163806
# 172411
# 192728
# 218621
#
# Disc length: 3175 seconds
#
#
# Revision: 0
# Processed by: cddbd v1.5.2PL0 Copyright (c) Steve Scherf et al.
# Submitted via: FreeRIP 2.945 
#
DISCID=b50c650c
DTITLE=Ray Lamontagne - Till the Sun Turns Black
DYEAR=2006
DGENRE=Blues
TTITLE0=Be Here Now
TTITLE1=Empty
TTITLE2=Barfly
TTITLE3=Three More Days
TTITLE4=Can I Stay
TTITLE5=You Can Bring Me Flowers
TTITLE6=Gone Away From Me
TTITLE7=Lesson Learned
TTITLE8=Truly, Madly, Deeply
TTITLE9=Till The Sun Turns Black
TTITLE10=Within You
TTITLE11=Digital Booklet
EXTD=
EXTT0=
EXTT1=
EXTT2=
EXTT3=
EXTT4=
EXTT5=
EXTT6=
EXTT7=
EXTT8=
EXTT9=
EXTT10=
EXTT11=
PLAYORDER=
